<?xml version="1.0" encoding="UTF-8" standalone="no"?>
<!-- Generator: Adobe Illustrator 14.0.0, SVG Export Plug-In . SVG Version: 6.00 Build 43363)  -->

<svg
   xmlns:dc="http://purl.org/dc/elements/1.1/"
   xmlns:cc="http://creativecommons.org/ns#"
   xmlns:rdf="http://www.w3.org/1999/02/22-rdf-syntax-ns#"
   xmlns:svg="http://www.w3.org/2000/svg"
   xmlns="http://www.w3.org/2000/svg"
   xmlns:sodipodi="http://sodipodi.sourceforge.net/DTD/sodipodi-0.dtd"
   xmlns:inkscape="http://www.inkscape.org/namespaces/inkscape"
   version="1.1"
   id="Layer_1"
   x="0px"
   y="0px"
   width="320"
   height="320"
   viewBox="0 0 300 300"
   enable-background="new 0 0 300 300"
   xml:space="preserve"
   inkscape:version="0.92.0 r15299"
   sodipodi:docname="Xiangqi_pictogram.svg"><metadata
   id="metadata2850"><rdf:RDF><cc:Work
       rdf:about=""><dc:format>image/svg+xml</dc:format><dc:type
         rdf:resource="http://purl.org/dc/dcmitype/StillImage" /></cc:Work></rdf:RDF></metadata><defs
   id="defs2848"><inkscape:perspective
     sodipodi:type="inkscape:persp3d"
     inkscape:vp_x="0 : 150 : 1"
     inkscape:vp_y="0 : 1000 : 0"
     inkscape:vp_z="300 : 150 : 1"
     inkscape:persp3d-origin="150 : 100 : 1"
     id="perspective2852" /><inkscape:perspective
     id="perspective4178"
     inkscape:persp3d-origin="0.5 : 0.33333333 : 1"
     inkscape:vp_z="1 : 0.5 : 1"
     inkscape:vp_y="0 : 1000 : 0"
     inkscape:vp_x="0 : 0.5 : 1"
     sodipodi:type="inkscape:persp3d" /></defs><sodipodi:namedview
   pagecolor="#ffffff"
   bordercolor="#666666"
   borderopacity="1"
   objecttolerance="10"
   gridtolerance="10"
   guidetolerance="10"
   inkscape:pageopacity="0"
   inkscape:pageshadow="2"
   inkscape:window-width="1280"
   inkscape:window-height="657"
   id="namedview2846"
   showgrid="false"
   inkscape:zoom="1.0501355"
   inkscape:cx="-36.816596"
   inkscape:cy="136"
   inkscape:window-x="-8"
   inkscape:window-y="-8"
   inkscape:window-maximized="1"
   inkscape:current-layer="g3632" />





<g
   id="g3632"><path
     sodipodi:nodetypes="ccccccccccc"
     id="path2836"
     d="m 119.23017,224.42105 c -9.57614,-0.88067 -19.401534,-3.94738 -26.343759,-10.875 -7.215,-6.938 -13.814,-15.142 -16.375,-25 -1.806,-13.089 2.49075,-27 11.59375,-36.625 5.465,-6.007 13.755259,-9.71975 21.906259,-9.09375 6.434,0.528 10.44175,9.20125 6.21875,14.28125 -5.411,7.041 -14.70575,9.789 -19.968754,17 -2.916005,3.449 -4.589505,8.2025 -3.437505,12.6875 1.887,8.26 6.924255,15.375 12.156259,21.875 3.72975,4.89918 9.05754,8.12118 14.25,11.28125 z"
     inkscape:connector-curvature="0" /><path
     id="path2838"
     d="m 154.75286,188.55942 c -4.995,0.797 -9.92,-0.515 -14.795,-1.425 -3.016,-0.461 -5.595,-2.439 -8.7,-2.477 0.775,2.447 3.05,3.76 4.858,5.365 6.149,5.211 13.602,9.466 21.841,9.783 9.801,0.628 20.207,0.926 29.204,-3.648 8.05,-3.957 13.647,-11.533 17.313,-19.519 3.841,-8.333 5.012,-18.015 2.771,-26.94 -2.288,-5.599 -5.248,-12.034 -11.395,-14.165 -3.905,-0.692 -9.259,0.527 -10.704,4.72 -2.058,5.61 0.104,11.534 1.053,17.149 1.67,6.818 2.135,14.844 -2.081,20.84 -7.788,7.437 -19.079,9.172 -29.365,10.317 z"
     inkscape:connector-curvature="0" /><path
     id="path2840"
     d="m 280.065,196.152 c -0.773,-2.054 -3.257,-1.705 -5.006,-1.791 -83.973,0.065 -167.95,-0.037 -251.922,0.051 -2.369,-0.422 -4.774,2.281 -3.262,4.402 0.83,2.121 3.347,1.401 5.121,1.587 84.744,-0.12 169.493,0.136 254.235,-0.128 0.272,-1.334 2.053,-2.849 0.834,-4.121 z"
     inkscape:connector-curvature="0" /><circle
     transform="translate(0,10)"
     id="circle2844"
     r="22.243"
     cy="106.924"
     cx="155.909" /><path
     style="color:#000000;font-style:normal;font-variant:normal;font-weight:normal;font-stretch:normal;font-size:medium;line-height:normal;font-family:sans-serif;font-variant-ligatures:normal;font-variant-position:normal;font-variant-caps:normal;font-variant-numeric:normal;font-variant-alternates:normal;font-feature-settings:normal;text-indent:0;text-align:start;text-decoration:none;text-decoration-line:none;text-decoration-style:solid;text-decoration-color:#000000;letter-spacing:normal;word-spacing:normal;text-transform:none;writing-mode:lr-tb;direction:ltr;text-orientation:mixed;dominant-baseline:auto;baseline-shift:baseline;text-anchor:start;white-space:normal;shape-padding:0;clip-rule:nonzero;display:inline;overflow:visible;visibility:visible;opacity:1;isolation:auto;mix-blend-mode:normal;color-interpolation:sRGB;color-interpolation-filters:linearRGB;solid-color:#000000;solid-opacity:1;vector-effect:none;fill:#000000;fill-opacity:1;fill-rule:nonzero;stroke:none;stroke-width:1.56129348;stroke-linecap:butt;stroke-linejoin:miter;stroke-miterlimit:4;stroke-dasharray:none;stroke-dashoffset:0;stroke-opacity:1;color-rendering:auto;image-rendering:auto;shape-rendering:auto;text-rendering:auto;enable-background:accumulate"
     d="m 146.12696,215.49009 c -4.91481,0 -9.3786,1.56905 -12.64411,4.14974 -3.26553,2.58067 -5.34087,6.21097 -5.34087,10.24377 0,4.03276 2.07534,7.66306 5.34087,10.24375 3.26551,2.58067 7.7293,4.14972 12.64411,4.14972 4.91483,0 9.38032,-1.56905 12.64584,-4.14972 3.26554,-2.58069 5.34087,-6.21099 5.34087,-10.24375 0,-4.0328 -2.07533,-7.6631 -5.34087,-10.24377 -3.26552,-2.58069 -7.73101,-4.14974 -12.64584,-4.14974 z m 0,1.57878 c 4.59247,0 8.73635,1.4759 11.70123,3.81899 2.96489,2.34308 4.74175,5.51508 4.74175,8.99574 0,3.4806 -1.77686,6.65087 -4.74175,8.99395 -2.96488,2.34307 -7.10876,3.82075 -11.70123,3.82075 -4.59244,0 -8.73463,-1.47768 -11.69951,-3.82075 -2.96488,-2.34308 -4.74176,-5.51335 -4.74176,-8.99395 0,-3.48066 1.77688,-6.65266 4.74176,-8.99574 2.96488,-2.34309 7.10707,-3.81899 11.69951,-3.81899 z"
     id="path4502"
     inkscape:connector-curvature="0" /><ellipse
     style="fill:#000000;fill-opacity:1;stroke:none;stroke-width:3.53126502;stroke-miterlimit:4;stroke-dasharray:none;stroke-opacity:1"
     id="path4502-2"
     cx="186.81653"
     cy="229.88327"
     rx="17.214457"
     ry="13.604228" /></g></svg>